<?xml version="1.0" encoding="UTF-8"?>
<!DOCTYPE svg PUBLIC "-//W3C//DTD SVG 1.1//EN" "http://www.w3.org/Graphics/SVG/1.1/DTD/svg11.dtd">
<svg version="1.2" xmlns="http://www.w3.org/2000/svg" xmlns:xlink="http://www.w3.org/1999/xlink" x="0mm" y="0mm" width="260mm" height="260mm" viewBox="0 0 260 260">
<style type="text/css"><![CDATA[
text { font:12px Dialog; }
]]></style>
<rect x="0" y="0" width="10" height="10" style="fill:rgb(0,0,0);stroke:none" />
<rect x="10" y="0" width="10" height="10" style="fill:rgb(255,255,255);stroke:none" />
<rect x="20" y="0" width="10" height="10" style="fill:rgb(0,0,0);stroke:none" />
<rect x="30" y="0" width="10" height="10" style="fill:rgb(0,0,0);stroke:none" />
<rect x="40" y="0" width="10" height="10" style="fill:rgb(255,255,255);stroke:none" />
<rect x="50" y="0" width="10" height="10" style="fill:rgb(0,0,0);stroke:none" />
<rect x="60" y="0" width="10" height="10" style="fill:rgb(0,0,0);stroke:none" />
<rect x="70" y="0" width="10" height="10" style="fill:rgb(255,255,255);stroke:none" />
<rect x="80" y="0" width="10" height="10" style="fill:rgb(0,0,0);stroke:none" />
<rect x="90" y="0" width="10" height="10" style="fill:rgb(255,255,255);stroke:none" />
<rect x="100" y="0" width="10" height="10" style="fill:rgb(255,255,255);stroke:none" />
<rect x="110" y="0" width="10" height="10" style="fill:rgb(255,255,255);stroke:none" />
<rect x="120" y="0" width="10" height="10" style="fill:rgb(0,0,0);stroke:none" />
<rect x="130" y="0" width="10" height="10" style="fill:rgb(255,255,255);stroke:none" />
<rect x="140" y="0" width="10" height="10" style="fill:rgb(0,0,0);stroke:none" />
<rect x="150" y="0" width="10" height="10" style="fill:rgb(0,0,0);stroke:none" />
<rect x="160" y="0" width="10" height="10" style="fill:rgb(0,0,0);stroke:none" />
<rect x="170" y="0" width="10" height="10" style="fill:rgb(0,0,0);stroke:none" />
<rect x="180" y="0" width="10" height="10" style="fill:rgb(255,255,255);stroke:none" />
<rect x="190" y="0" width="10" height="10" style="fill:rgb(0,0,0);stroke:none" />
<rect x="200" y="0" width="10" height="10" style="fill:rgb(0,0,0);stroke:none" />
<rect x="210" y="0" width="10" height="10" style="fill:rgb(0,0,0);stroke:none" />
<rect x="220" y="0" width="10" height="10" style="fill:rgb(0,0,0);stroke:none" />
<rect x="230" y="0" width="10" height="10" style="fill:rgb(0,0,0);stroke:none" />
<rect x="240" y="0" width="10" height="10" style="fill:rgb(0,0,0);stroke:none" />
<rect x="250" y="0" width="10" height="10" style="fill:rgb(255,255,255);stroke:none" />
<rect x="0" y="10" width="10" height="10" style="fill:rgb(255,255,255);stroke:none" />
<rect x="10" y="10" width="10" height="10" style="fill:rgb(255,255,255);stroke:none" />
<rect x="20" y="10" width="10" height="10" style="fill:rgb(0,0,0);stroke:none" />
<rect x="30" y="10" width="10" height="10" style="fill:rgb(255,255,255);stroke:none" />
<rect x="40" y="10" width="10" height="10" style="fill:rgb(255,255,255);stroke:none" />
<rect x="50" y="10" width="10" height="10" style="fill:rgb(255,255,255);stroke:none" />
<rect x="60" y="10" width="10" height="10" style="fill:rgb(0,0,0);stroke:none" />
<rect x="70" y="10" width="10" height="10" style="fill:rgb(255,255,255);stroke:none" />
<rect x="80" y="10" width="10" height="10" style="fill:rgb(255,255,255);stroke:none" />
<rect x="90" y="10" width="10" height="10" style="fill:rgb(0,0,0);stroke:none" />
<rect x="100" y="10" width="10" height="10" style="fill:rgb(0,0,0);stroke:none" />
<rect x="110" y="10" width="10" height="10" style="fill:rgb(0,0,0);stroke:none" />
<rect x="120" y="10" width="10" height="10" style="fill:rgb(0,0,0);stroke:none" />
<rect x="130" y="10" width="10" height="10" style="fill:rgb(255,255,255);stroke:none" />
<rect x="140" y="10" width="10" height="10" style="fill:rgb(0,0,0);stroke:none" />
<rect x="150" y="10" width="10" height="10" style="fill:rgb(255,255,255);stroke:none" />
<rect x="160" y="10" width="10" height="10" style="fill:rgb(255,255,255);stroke:none" />
<rect x="170" y="10" width="10" height="10" style="fill:rgb(255,255,255);stroke:none" />
<rect x="180" y="10" width="10" height="10" style="fill:rgb(0,0,0);stroke:none" />
<rect x="190" y="10" width="10" height="10" style="fill:rgb(0,0,0);stroke:none" />
<rect x="200" y="10" width="10" height="10" style="fill:rgb(255,255,255);stroke:none" />
<rect x="210" y="10" width="10" height="10" style="fill:rgb(255,255,255);stroke:none" />
<rect x="220" y="10" width="10" height="10" style="fill:rgb(0,0,0);stroke:none" />
<rect x="230" y="10" width="10" height="10" style="fill:rgb(0,0,0);stroke:none" />
<rect x="240" y="10" width="10" height="10" style="fill:rgb(255,255,255);stroke:none" />
<rect x="250" y="10" width="10" height="10" style="fill:rgb(0,0,0);stroke:none" />
<rect x="0" y="20" width="10" height="10" style="fill:rgb(0,0,0);stroke:none" />
<rect x="10" y="20" width="10" height="10" style="fill:rgb(0,0,0);stroke:none" />
<rect x="20" y="20" width="10" height="10" style="fill:rgb(0,0,0);stroke:none" />
<rect x="30" y="20" width="10" height="10" style="fill:rgb(0,0,0);stroke:none" />
<rect x="40" y="20" width="10" height="10" style="fill:rgb(0,0,0);stroke:none" />
<rect x="50" y="20" width="10" height="10" style="fill:rgb(255,255,255);stroke:none" />
<rect x="60" y="20" width="10" height="10" style="fill:rgb(255,255,255);stroke:none" />
<rect x="70" y="20" width="10" height="10" style="fill:rgb(255,255,255);stroke:none" />
<rect x="80" y="20" width="10" height="10" style="fill:rgb(0,0,0);stroke:none" />
<rect x="90" y="20" width="10" height="10" style="fill:rgb(255,255,255);stroke:none" />
<rect x="100" y="20" width="10" height="10" style="fill:rgb(0,0,0);stroke:none" />
<rect x="110" y="20" width="10" height="10" style="fill:rgb(0,0,0);stroke:none" />
<rect x="120" y="20" width="10" height="10" style="fill:rgb(0,0,0);stroke:none" />
<rect x="130" y="20" width="10" height="10" style="fill:rgb(255,255,255);stroke:none" />
<rect x="140" y="20" width="10" height="10" style="fill:rgb(255,255,255);stroke:none" />
<rect x="150" y="20" width="10" height="10" style="fill:rgb(0,0,0);stroke:none" />
<rect x="160" y="20" width="10" height="10" style="fill:rgb(255,255,255);stroke:none" />
<rect x="170" y="20" width="10" height="10" style="fill:rgb(0,0,0);stroke:none" />
<rect x="180" y="20" width="10" height="10" style="fill:rgb(0,0,0);stroke:none" />
<rect x="190" y="20" width="10" height="10" style="fill:rgb(0,0,0);stroke:none" />
<rect x="200" y="20" width="10" height="10" style="fill:rgb(0,0,0);stroke:none" />
<rect x="210" y="20" width="10" height="10" style="fill:rgb(255,255,255);stroke:none" />
<rect x="220" y="20" width="10" height="10" style="fill:rgb(255,255,255);stroke:none" />
<rect x="230" y="20" width="10" height="10" style="fill:rgb(0,0,0);stroke:none" />
<rect x="240" y="20" width="10" height="10" style="fill:rgb(0,0,0);stroke:none" />
<rect x="250" y="20" width="10" height="10" style="fill:rgb(255,255,255);stroke:none" />
<rect x="0" y="30" width="10" height="10" style="fill:rgb(0,0,0);stroke:none" />
<rect x="10" y="30" width="10" height="10" style="fill:rgb(255,255,255);stroke:none" />
<rect x="20" y="30" width="10" height="10" style="fill:rgb(0,0,0);stroke:none" />
<rect x="30" y="30" width="10" height="10" style="fill:rgb(0,0,0);stroke:none" />
<rect x="40" y="30" width="10" height="10" style="fill:rgb(255,255,255);stroke:none" />
<rect x="50" y="30" width="10" height="10" style="fill:rgb(0,0,0);stroke:none" />
<rect x="60" y="30" width="10" height="10" style="fill:rgb(0,0,0);stroke:none" />
<rect x="70" y="30" width="10" height="10" style="fill:rgb(0,0,0);stroke:none" />
<rect x="80" y="30" width="10" height="10" style="fill:rgb(0,0,0);stroke:none" />
<rect x="90" y="30" width="10" height="10" style="fill:rgb(0,0,0);stroke:none" />
<rect x="100" y="30" width="10" height="10" style="fill:rgb(0,0,0);stroke:none" />
<rect x="110" y="30" width="10" height="10" style="fill:rgb(255,255,255);stroke:none" />
<rect x="120" y="30" width="10" height="10" style="fill:rgb(255,255,255);stroke:none" />
<rect x="130" y="30" width="10" height="10" style="fill:rgb(0,0,0);stroke:none" />
<rect x="140" y="30" width="10" height="10" style="fill:rgb(0,0,0);stroke:none" />
<rect x="150" y="30" width="10" height="10" style="fill:rgb(0,0,0);stroke:none" />
<rect x="160" y="30" width="10" height="10" style="fill:rgb(255,255,255);stroke:none" />
<rect x="170" y="30" width="10" height="10" style="fill:rgb(0,0,0);stroke:none" />
<rect x="180" y="30" width="10" height="10" style="fill:rgb(0,0,0);stroke:none" />
<rect x="190" y="30" width="10" height="10" style="fill:rgb(255,255,255);stroke:none" />
<rect x="200" y="30" width="10" height="10" style="fill:rgb(255,255,255);stroke:none" />
<rect x="210" y="30" width="10" height="10" style="fill:rgb(0,0,0);stroke:none" />
<rect x="220" y="30" width="10" height="10" style="fill:rgb(0,0,0);stroke:none" />
<rect x="230" y="30" width="10" height="10" style="fill:rgb(255,255,255);stroke:none" />
<rect x="240" y="30" width="10" height="10" style="fill:rgb(0,0,0);stroke:none" />
<rect x="250" y="30" width="10" height="10" style="fill:rgb(255,255,255);stroke:none" />
<rect x="0" y="40" width="10" height="10" style="fill:rgb(0,0,0);stroke:none" />
<rect x="10" y="40" width="10" height="10" style="fill:rgb(255,255,255);stroke:none" />
<rect x="20" y="40" width="10" height="10" style="fill:rgb(255,255,255);stroke:none" />
<rect x="30" y="40" width="10" height="10" style="fill:rgb(255,255,255);stroke:none" />
<rect x="40" y="40" width="10" height="10" style="fill:rgb(0,0,0);stroke:none" />
<rect x="50" y="40" width="10" height="10" style="fill:rgb(0,0,0);stroke:none" />
<rect x="60" y="40" width="10" height="10" style="fill:rgb(255,255,255);stroke:none" />
<rect x="70" y="40" width="10" height="10" style="fill:rgb(255,255,255);stroke:none" />
<rect x="80" y="40" width="10" height="10" style="fill:rgb(0,0,0);stroke:none" />
<rect x="90" y="40" width="10" height="10" style="fill:rgb(255,255,255);stroke:none" />
<rect x="100" y="40" width="10" height="10" style="fill:rgb(255,255,255);stroke:none" />
<rect x="110" y="40" width="10" height="10" style="fill:rgb(255,255,255);stroke:none" />
<rect x="120" y="40" width="10" height="10" style="fill:rgb(0,0,0);stroke:none" />
<rect x="130" y="40" width="10" height="10" style="fill:rgb(255,255,255);stroke:none" />
<rect x="140" y="40" width="10" height="10" style="fill:rgb(0,0,0);stroke:none" />
<rect x="150" y="40" width="10" height="10" style="fill:rgb(0,0,0);stroke:none" />
<rect x="160" y="40" width="10" height="10" style="fill:rgb(0,0,0);stroke:none" />
<rect x="170" y="40" width="10" height="10" style="fill:rgb(0,0,0);stroke:none" />
<rect x="180" y="40" width="10" height="10" style="fill:rgb(255,255,255);stroke:none" />
<rect x="190" y="40" width="10" height="10" style="fill:rgb(0,0,0);stroke:none" />
<rect x="200" y="40" width="10" height="10" style="fill:rgb(0,0,0);stroke:none" />
<rect x="210" y="40" width="10" height="10" style="fill:rgb(0,0,0);stroke:none" />
<rect x="220" y="40" width="10" height="10" style="fill:rgb(0,0,0);stroke:none" />
<rect x="230" y="40" width="10" height="10" style="fill:rgb(0,0,0);stroke:none" />
<rect x="240" y="40" width="10" height="10" style="fill:rgb(0,0,0);stroke:none" />
<rect x="250" y="40" width="10" height="10" style="fill:rgb(255,255,255);stroke:none" />
<rect x="0" y="50" width="10" height="10" style="fill:rgb(255,255,255);stroke:none" />
<rect x="10" y="50" width="10" height="10" style="fill:rgb(0,0,0);stroke:none" />
<rect x="20" y="50" width="10" height="10" style="fill:rgb(255,255,255);stroke:none" />
<rect x="30" y="50" width="10" height="10" style="fill:rgb(255,255,255);stroke:none" />
<rect x="40" y="50" width="10" height="10" style="fill:rgb(255,255,255);stroke:none" />
<rect x="50" y="50" width="10" height="10" style="fill:rgb(255,255,255);stroke:none" />
<rect x="60" y="50" width="10" height="10" style="fill:rgb(0,0,0);stroke:none" />
<rect x="70" y="50" width="10" height="10" style="fill:rgb(255,255,255);stroke:none" />
<rect x="80" y="50" width="10" height="10" style="fill:rgb(255,255,255);stroke:none" />
<rect x="90" y="50" width="10" height="10" style="fill:rgb(0,0,0);stroke:none" />
<rect x="100" y="50" width="10" height="10" style="fill:rgb(0,0,0);stroke:none" />
<rect x="110" y="50" width="10" height="10" style="fill:rgb(255,255,255);stroke:none" />
<rect x="120" y="50" width="10" height="10" style="fill:rgb(255,255,255);stroke:none" />
<rect x="130" y="50" width="10" height="10" style="fill:rgb(0,0,0);stroke:none" />
<rect x="140" y="50" width="10" height="10" style="fill:rgb(0,0,0);stroke:none" />
<rect x="150" y="50" width="10" height="10" style="fill:rgb(0,0,0);stroke:none" />
<rect x="160" y="50" width="10" height="10" style="fill:rgb(255,255,255);stroke:none" />
<rect x="170" y="50" width="10" height="10" style="fill:rgb(0,0,0);stroke:none" />
<rect x="180" y="50" width="10" height="10" style="fill:rgb(0,0,0);stroke:none" />
<rect x="190" y="50" width="10" height="10" style="fill:rgb(0,0,0);stroke:none" />
<rect x="200" y="50" width="10" height="10" style="fill:rgb(0,0,0);stroke:none" />
<rect x="210" y="50" width="10" height="10" style="fill:rgb(0,0,0);stroke:none" />
<rect x="220" y="50" width="10" height="10" style="fill:rgb(0,0,0);stroke:none" />
<rect x="230" y="50" width="10" height="10" style="fill:rgb(255,255,255);stroke:none" />
<rect x="240" y="50" width="10" height="10" style="fill:rgb(255,255,255);stroke:none" />
<rect x="250" y="50" width="10" height="10" style="fill:rgb(255,255,255);stroke:none" />
<rect x="0" y="60" width="10" height="10" style="fill:rgb(0,0,0);stroke:none" />
<rect x="10" y="60" width="10" height="10" style="fill:rgb(255,255,255);stroke:none" />
<rect x="20" y="60" width="10" height="10" style="fill:rgb(0,0,0);stroke:none" />
<rect x="30" y="60" width="10" height="10" style="fill:rgb(0,0,0);stroke:none" />
<rect x="40" y="60" width="10" height="10" style="fill:rgb(0,0,0);stroke:none" />
<rect x="50" y="60" width="10" height="10" style="fill:rgb(255,255,255);stroke:none" />
<rect x="60" y="60" width="10" height="10" style="fill:rgb(255,255,255);stroke:none" />
<rect x="70" y="60" width="10" height="10" style="fill:rgb(0,0,0);stroke:none" />
<rect x="80" y="60" width="10" height="10" style="fill:rgb(255,255,255);stroke:none" />
<rect x="90" y="60" width="10" height="10" style="fill:rgb(0,0,0);stroke:none" />
<rect x="100" y="60" width="10" height="10" style="fill:rgb(0,0,0);stroke:none" />
<rect x="110" y="60" width="10" height="10" style="fill:rgb(255,255,255);stroke:none" />
<rect x="120" y="60" width="10" height="10" style="fill:rgb(0,0,0);stroke:none" />
<rect x="130" y="60" width="10" height="10" style="fill:rgb(255,255,255);stroke:none" />
<rect x="140" y="60" width="10" height="10" style="fill:rgb(255,255,255);stroke:none" />
<rect x="150" y="60" width="10" height="10" style="fill:rgb(0,0,0);stroke:none" />
<rect x="160" y="60" width="10" height="10" style="fill:rgb(255,255,255);stroke:none" />
<rect x="170" y="60" width="10" height="10" style="fill:rgb(255,255,255);stroke:none" />
<rect x="180" y="60" width="10" height="10" style="fill:rgb(0,0,0);stroke:none" />
<rect x="190" y="60" width="10" height="10" style="fill:rgb(255,255,255);stroke:none" />
<rect x="200" y="60" width="10" height="10" style="fill:rgb(0,0,0);stroke:none" />
<rect x="210" y="60" width="10" height="10" style="fill:rgb(255,255,255);stroke:none" />
<rect x="220" y="60" width="10" height="10" style="fill:rgb(255,255,255);stroke:none" />
<rect x="230" y="60" width="10" height="10" style="fill:rgb(0,0,0);stroke:none" />
<rect x="240" y="60" width="10" height="10" style="fill:rgb(0,0,0);stroke:none" />
<rect x="250" y="60" width="10" height="10" style="fill:rgb(255,255,255);stroke:none" />
<rect x="0" y="70" width="10" height="10" style="fill:rgb(0,0,0);stroke:none" />
<rect x="10" y="70" width="10" height="10" style="fill:rgb(255,255,255);stroke:none" />
<rect x="20" y="70" width="10" height="10" style="fill:rgb(0,0,0);stroke:none" />
<rect x="30" y="70" width="10" height="10" style="fill:rgb(255,255,255);stroke:none" />
<rect x="40" y="70" width="10" height="10" style="fill:rgb(255,255,255);stroke:none" />
<rect x="50" y="70" width="10" height="10" style="fill:rgb(255,255,255);stroke:none" />
<rect x="60" y="70" width="10" height="10" style="fill:rgb(0,0,0);stroke:none" />
<rect x="70" y="70" width="10" height="10" style="fill:rgb(0,0,0);stroke:none" />
<rect x="80" y="70" width="10" height="10" style="fill:rgb(255,255,255);stroke:none" />
<rect x="90" y="70" width="10" height="10" style="fill:rgb(255,255,255);stroke:none" />
<rect x="100" y="70" width="10" height="10" style="fill:rgb(0,0,0);stroke:none" />
<rect x="110" y="70" width="10" height="10" style="fill:rgb(0,0,0);stroke:none" />
<rect x="120" y="70" width="10" height="10" style="fill:rgb(255,255,255);stroke:none" />
<rect x="130" y="70" width="10" height="10" style="fill:rgb(0,0,0);stroke:none" />
<rect x="140" y="70" width="10" height="10" style="fill:rgb(255,255,255);stroke:none" />
<rect x="150" y="70" width="10" height="10" style="fill:rgb(255,255,255);stroke:none" />
<rect x="160" y="70" width="10" height="10" style="fill:rgb(0,0,0);stroke:none" />
<rect x="170" y="70" width="10" height="10" style="fill:rgb(0,0,0);stroke:none" />
<rect x="180" y="70" width="10" height="10" style="fill:rgb(0,0,0);stroke:none" />
<rect x="190" y="70" width="10" height="10" style="fill:rgb(0,0,0);stroke:none" />
<rect x="200" y="70" width="10" height="10" style="fill:rgb(255,255,255);stroke:none" />
<rect x="210" y="70" width="10" height="10" style="fill:rgb(0,0,0);stroke:none" />
<rect x="220" y="70" width="10" height="10" style="fill:rgb(0,0,0);stroke:none" />
<rect x="230" y="70" width="10" height="10" style="fill:rgb(0,0,0);stroke:none" />
<rect x="240" y="70" width="10" height="10" style="fill:rgb(0,0,0);stroke:none" />
<rect x="250" y="70" width="10" height="10" style="fill:rgb(0,0,0);stroke:none" />
<rect x="0" y="80" width="10" height="10" style="fill:rgb(0,0,0);stroke:none" />
<rect x="10" y="80" width="10" height="10" style="fill:rgb(255,255,255);stroke:none" />
<rect x="20" y="80" width="10" height="10" style="fill:rgb(255,255,255);stroke:none" />
<rect x="30" y="80" width="10" height="10" style="fill:rgb(0,0,0);stroke:none" />
<rect x="40" y="80" width="10" height="10" style="fill:rgb(255,255,255);stroke:none" />
<rect x="50" y="80" width="10" height="10" style="fill:rgb(0,0,0);stroke:none" />
<rect x="60" y="80" width="10" height="10" style="fill:rgb(0,0,0);stroke:none" />
<rect x="70" y="80" width="10" height="10" style="fill:rgb(255,255,255);stroke:none" />
<rect x="80" y="80" width="10" height="10" style="fill:rgb(0,0,0);stroke:none" />
<rect x="90" y="80" width="10" height="10" style="fill:rgb(255,255,255);stroke:none" />
<rect x="100" y="80" width="10" height="10" style="fill:rgb(255,255,255);stroke:none" />
<rect x="110" y="80" width="10" height="10" style="fill:rgb(255,255,255);stroke:none" />
<rect x="120" y="80" width="10" height="10" style="fill:rgb(0,0,0);stroke:none" />
<rect x="130" y="80" width="10" height="10" style="fill:rgb(255,255,255);stroke:none" />
<rect x="140" y="80" width="10" height="10" style="fill:rgb(0,0,0);stroke:none" />
<rect x="150" y="80" width="10" height="10" style="fill:rgb(0,0,0);stroke:none" />
<rect x="160" y="80" width="10" height="10" style="fill:rgb(0,0,0);stroke:none" />
<rect x="170" y="80" width="10" height="10" style="fill:rgb(0,0,0);stroke:none" />
<rect x="180" y="80" width="10" height="10" style="fill:rgb(255,255,255);stroke:none" />
<rect x="190" y="80" width="10" height="10" style="fill:rgb(0,0,0);stroke:none" />
<rect x="200" y="80" width="10" height="10" style="fill:rgb(0,0,0);stroke:none" />
<rect x="210" y="80" width="10" height="10" style="fill:rgb(0,0,0);stroke:none" />
<rect x="220" y="80" width="10" height="10" style="fill:rgb(0,0,0);stroke:none" />
<rect x="230" y="80" width="10" height="10" style="fill:rgb(0,0,0);stroke:none" />
<rect x="240" y="80" width="10" height="10" style="fill:rgb(0,0,0);stroke:none" />
<rect x="250" y="80" width="10" height="10" style="fill:rgb(255,255,255);stroke:none" />
<rect x="0" y="90" width="10" height="10" style="fill:rgb(255,255,255);stroke:none" />
<rect x="10" y="90" width="10" height="10" style="fill:rgb(255,255,255);stroke:none" />
<rect x="20" y="90" width="10" height="10" style="fill:rgb(0,0,0);stroke:none" />
<rect x="30" y="90" width="10" height="10" style="fill:rgb(255,255,255);stroke:none" />
<rect x="40" y="90" width="10" height="10" style="fill:rgb(255,255,255);stroke:none" />
<rect x="50" y="90" width="10" height="10" style="fill:rgb(255,255,255);stroke:none" />
<rect x="60" y="90" width="10" height="10" style="fill:rgb(0,0,0);stroke:none" />
<rect x="70" y="90" width="10" height="10" style="fill:rgb(255,255,255);stroke:none" />
<rect x="80" y="90" width="10" height="10" style="fill:rgb(255,255,255);stroke:none" />
<rect x="90" y="90" width="10" height="10" style="fill:rgb(0,0,0);stroke:none" />
<rect x="100" y="90" width="10" height="10" style="fill:rgb(0,0,0);stroke:none" />
<rect x="110" y="90" width="10" height="10" style="fill:rgb(0,0,0);stroke:none" />
<rect x="120" y="90" width="10" height="10" style="fill:rgb(0,0,0);stroke:none" />
<rect x="130" y="90" width="10" height="10" style="fill:rgb(255,255,255);stroke:none" />
<rect x="140" y="90" width="10" height="10" style="fill:rgb(0,0,0);stroke:none" />
<rect x="150" y="90" width="10" height="10" style="fill:rgb(255,255,255);stroke:none" />
<rect x="160" y="90" width="10" height="10" style="fill:rgb(255,255,255);stroke:none" />
<rect x="170" y="90" width="10" height="10" style="fill:rgb(255,255,255);stroke:none" />
<rect x="180" y="90" width="10" height="10" style="fill:rgb(0,0,0);stroke:none" />
<rect x="190" y="90" width="10" height="10" style="fill:rgb(0,0,0);stroke:none" />
<rect x="200" y="90" width="10" height="10" style="fill:rgb(255,255,255);stroke:none" />
<rect x="210" y="90" width="10" height="10" style="fill:rgb(255,255,255);stroke:none" />
<rect x="220" y="90" width="10" height="10" style="fill:rgb(0,0,0);stroke:none" />
<rect x="230" y="90" width="10" height="10" style="fill:rgb(0,0,0);stroke:none" />
<rect x="240" y="90" width="10" height="10" style="fill:rgb(255,255,255);stroke:none" />
<rect x="250" y="90" width="10" height="10" style="fill:rgb(0,0,0);stroke:none" />
<rect x="0" y="100" width="10" height="10" style="fill:rgb(0,0,0);stroke:none" />
<rect x="10" y="100" width="10" height="10" style="fill:rgb(0,0,0);stroke:none" />
<rect x="20" y="100" width="10" height="10" style="fill:rgb(0,0,0);stroke:none" />
<rect x="30" y="100" width="10" height="10" style="fill:rgb(0,0,0);stroke:none" />
<rect x="40" y="100" width="10" height="10" style="fill:rgb(0,0,0);stroke:none" />
<rect x="50" y="100" width="10" height="10" style="fill:rgb(255,255,255);stroke:none" />
<rect x="60" y="100" width="10" height="10" style="fill:rgb(255,255,255);stroke:none" />
<rect x="70" y="100" width="10" height="10" style="fill:rgb(255,255,255);stroke:none" />
<rect x="80" y="100" width="10" height="10" style="fill:rgb(0,0,0);stroke:none" />
<rect x="90" y="100" width="10" height="10" style="fill:rgb(255,255,255);stroke:none" />
<rect x="100" y="100" width="10" height="10" style="fill:rgb(0,0,0);stroke:none" />
<rect x="110" y="100" width="10" height="10" style="fill:rgb(0,0,0);stroke:none" />
<rect x="120" y="100" width="10" height="10" style="fill:rgb(0,0,0);stroke:none" />
<rect x="130" y="100" width="10" height="10" style="fill:rgb(255,255,255);stroke:none" />
<rect x="140" y="100" width="10" height="10" style="fill:rgb(255,255,255);stroke:none" />
<rect x="150" y="100" width="10" height="10" style="fill:rgb(0,0,0);stroke:none" />
<rect x="160" y="100" width="10" height="10" style="fill:rgb(255,255,255);stroke:none" />
<rect x="170" y="100" width="10" height="10" style="fill:rgb(0,0,0);stroke:none" />
<rect x="180" y="100" width="10" height="10" style="fill:rgb(0,0,0);stroke:none" />
<rect x="190" y="100" width="10" height="10" style="fill:rgb(0,0,0);stroke:none" />
<rect x="200" y="100" width="10" height="10" style="fill:rgb(0,0,0);stroke:none" />
<rect x="210" y="100" width="10" height="10" style="fill:rgb(255,255,255);stroke:none" />
<rect x="220" y="100" width="10" height="10" style="fill:rgb(255,255,255);stroke:none" />
<rect x="230" y="100" width="10" height="10" style="fill:rgb(0,0,0);stroke:none" />
<rect x="240" y="100" width="10" height="10" style="fill:rgb(0,0,0);stroke:none" />
<rect x="250" y="100" width="10" height="10" style="fill:rgb(255,255,255);stroke:none" />
<rect x="0" y="110" width="10" height="10" style="fill:rgb(0,0,0);stroke:none" />
<rect x="10" y="110" width="10" height="10" style="fill:rgb(255,255,255);stroke:none" />
<rect x="20" y="110" width="10" height="10" style="fill:rgb(0,0,0);stroke:none" />
<rect x="30" y="110" width="10" height="10" style="fill:rgb(0,0,0);stroke:none" />
<rect x="40" y="110" width="10" height="10" style="fill:rgb(255,255,255);stroke:none" />
<rect x="50" y="110" width="10" height="10" style="fill:rgb(0,0,0);stroke:none" />
<rect x="60" y="110" width="10" height="10" style="fill:rgb(0,0,0);stroke:none" />
<rect x="70" y="110" width="10" height="10" style="fill:rgb(0,0,0);stroke:none" />
<rect x="80" y="110" width="10" height="10" style="fill:rgb(0,0,0);stroke:none" />
<rect x="90" y="110" width="10" height="10" style="fill:rgb(0,0,0);stroke:none" />
<rect x="100" y="110" width="10" height="10" style="fill:rgb(0,0,0);stroke:none" />
<rect x="110" y="110" width="10" height="10" style="fill:rgb(255,255,255);stroke:none" />
<rect x="120" y="110" width="10" height="10" style="fill:rgb(255,255,255);stroke:none" />
<rect x="130" y="110" width="10" height="10" style="fill:rgb(255,255,255);stroke:none" />
<rect x="140" y="110" width="10" height="10" style="fill:rgb(0,0,0);stroke:none" />
<rect x="150" y="110" width="10" height="10" style="fill:rgb(255,255,255);stroke:none" />
<rect x="160" y="110" width="10" height="10" style="fill:rgb(255,255,255);stroke:none" />
<rect x="170" y="110" width="10" height="10" style="fill:rgb(255,255,255);stroke:none" />
<rect x="180" y="110" width="10" height="10" style="fill:rgb(0,0,0);stroke:none" />
<rect x="190" y="110" width="10" height="10" style="fill:rgb(255,255,255);stroke:none" />
<rect x="200" y="110" width="10" height="10" style="fill:rgb(255,255,255);stroke:none" />
<rect x="210" y="110" width="10" height="10" style="fill:rgb(0,0,0);stroke:none" />
<rect x="220" y="110" width="10" height="10" style="fill:rgb(255,255,255);stroke:none" />
<rect x="230" y="110" width="10" height="10" style="fill:rgb(255,255,255);stroke:none" />
<rect x="240" y="110" width="10" height="10" style="fill:rgb(255,255,255);stroke:none" />
<rect x="250" y="110" width="10" height="10" style="fill:rgb(255,255,255);stroke:none" />
<rect x="0" y="120" width="10" height="10" style="fill:rgb(0,0,0);stroke:none" />
<rect x="10" y="120" width="10" height="10" style="fill:rgb(255,255,255);stroke:none" />
<rect x="20" y="120" width="10" height="10" style="fill:rgb(255,255,255);stroke:none" />
<rect x="30" y="120" width="10" height="10" style="fill:rgb(255,255,255);stroke:none" />
<rect x="40" y="120" width="10" height="10" style="fill:rgb(0,0,0);stroke:none" />
<rect x="50" y="120" width="10" height="10" style="fill:rgb(0,0,0);stroke:none" />
<rect x="60" y="120" width="10" height="10" style="fill:rgb(255,255,255);stroke:none" />
<rect x="70" y="120" width="10" height="10" style="fill:rgb(0,0,0);stroke:none" />
<rect x="80" y="120" width="10" height="10" style="fill:rgb(0,0,0);stroke:none" />
<rect x="90" y="120" width="10" height="10" style="fill:rgb(255,255,255);stroke:none" />
<rect x="100" y="120" width="10" height="10" style="fill:rgb(255,255,255);stroke:none" />
<rect x="110" y="120" width="10" height="10" style="fill:rgb(255,255,255);stroke:none" />
<rect x="120" y="120" width="10" height="10" style="fill:rgb(0,0,0);stroke:none" />
<rect x="130" y="120" width="10" height="10" style="fill:rgb(0,0,0);stroke:none" />
<rect x="140" y="120" width="10" height="10" style="fill:rgb(255,255,255);stroke:none" />
<rect x="150" y="120" width="10" height="10" style="fill:rgb(255,255,255);stroke:none" />
<rect x="160" y="120" width="10" height="10" style="fill:rgb(0,0,0);stroke:none" />
<rect x="170" y="120" width="10" height="10" style="fill:rgb(255,255,255);stroke:none" />
<rect x="180" y="120" width="10" height="10" style="fill:rgb(255,255,255);stroke:none" />
<rect x="190" y="120" width="10" height="10" style="fill:rgb(255,255,255);stroke:none" />
<rect x="200" y="120" width="10" height="10" style="fill:rgb(0,0,0);stroke:none" />
<rect x="210" y="120" width="10" height="10" style="fill:rgb(255,255,255);stroke:none" />
<rect x="220" y="120" width="10" height="10" style="fill:rgb(0,0,0);stroke:none" />
<rect x="230" y="120" width="10" height="10" style="fill:rgb(0,0,0);stroke:none" />
<rect x="240" y="120" width="10" height="10" style="fill:rgb(0,0,0);stroke:none" />
<rect x="250" y="120" width="10" height="10" style="fill:rgb(0,0,0);stroke:none" />
<rect x="0" y="130" width="10" height="10" style="fill:rgb(255,255,255);stroke:none" />
<rect x="10" y="130" width="10" height="10" style="fill:rgb(0,0,0);stroke:none" />
<rect x="20" y="130" width="10" height="10" style="fill:rgb(0,0,0);stroke:none" />
<rect x="30" y="130" width="10" height="10" style="fill:rgb(0,0,0);stroke:none" />
<rect x="40" y="130" width="10" height="10" style="fill:rgb(0,0,0);stroke:none" />
<rect x="50" y="130" width="10" height="10" style="fill:rgb(0,0,0);stroke:none" />
<rect x="60" y="130" width="10" height="10" style="fill:rgb(0,0,0);stroke:none" />
<rect x="70" y="130" width="10" height="10" style="fill:rgb(255,255,255);stroke:none" />
<rect x="80" y="130" width="10" height="10" style="fill:rgb(255,255,255);stroke:none" />
<rect x="90" y="130" width="10" height="10" style="fill:rgb(0,0,0);stroke:none" />
<rect x="100" y="130" width="10" height="10" style="fill:rgb(255,255,255);stroke:none" />
<rect x="110" y="130" width="10" height="10" style="fill:rgb(255,255,255);stroke:none" />
<rect x="120" y="130" width="10" height="10" style="fill:rgb(255,255,255);stroke:none" />
<rect x="130" y="130" width="10" height="10" style="fill:rgb(255,255,255);stroke:none" />
<rect x="140" y="130" width="10" height="10" style="fill:rgb(0,0,0);stroke:none" />
<rect x="150" y="130" width="10" height="10" style="fill:rgb(255,255,255);stroke:none" />
<rect x="160" y="130" width="10" height="10" style="fill:rgb(255,255,255);stroke:none" />
<rect x="170" y="130" width="10" height="10" style="fill:rgb(0,0,0);stroke:none" />
<rect x="180" y="130" width="10" height="10" style="fill:rgb(0,0,0);stroke:none" />
<rect x="190" y="130" width="10" height="10" style="fill:rgb(255,255,255);stroke:none" />
<rect x="200" y="130" width="10" height="10" style="fill:rgb(255,255,255);stroke:none" />
<rect x="210" y="130" width="10" height="10" style="fill:rgb(0,0,0);stroke:none" />
<rect x="220" y="130" width="10" height="10" style="fill:rgb(0,0,0);stroke:none" />
<rect x="230" y="130" width="10" height="10" style="fill:rgb(0,0,0);stroke:none" />
<rect x="240" y="130" width="10" height="10" style="fill:rgb(255,255,255);stroke:none" />
<rect x="250" y="130" width="10" height="10" style="fill:rgb(0,0,0);stroke:none" />
<rect x="0" y="140" width="10" height="10" style="fill:rgb(0,0,0);stroke:none" />
<rect x="10" y="140" width="10" height="10" style="fill:rgb(0,0,0);stroke:none" />
<rect x="20" y="140" width="10" height="10" style="fill:rgb(0,0,0);stroke:none" />
<rect x="30" y="140" width="10" height="10" style="fill:rgb(0,0,0);stroke:none" />
<rect x="40" y="140" width="10" height="10" style="fill:rgb(0,0,0);stroke:none" />
<rect x="50" y="140" width="10" height="10" style="fill:rgb(255,255,255);stroke:none" />
<rect x="60" y="140" width="10" height="10" style="fill:rgb(255,255,255);stroke:none" />
<rect x="70" y="140" width="10" height="10" style="fill:rgb(255,255,255);stroke:none" />
<rect x="80" y="140" width="10" height="10" style="fill:rgb(0,0,0);stroke:none" />
<rect x="90" y="140" width="10" height="10" style="fill:rgb(255,255,255);stroke:none" />
<rect x="100" y="140" width="10" height="10" style="fill:rgb(0,0,0);stroke:none" />
<rect x="110" y="140" width="10" height="10" style="fill:rgb(0,0,0);stroke:none" />
<rect x="120" y="140" width="10" height="10" style="fill:rgb(0,0,0);stroke:none" />
<rect x="130" y="140" width="10" height="10" style="fill:rgb(255,255,255);stroke:none" />
<rect x="140" y="140" width="10" height="10" style="fill:rgb(255,255,255);stroke:none" />
<rect x="150" y="140" width="10" height="10" style="fill:rgb(0,0,0);stroke:none" />
<rect x="160" y="140" width="10" height="10" style="fill:rgb(255,255,255);stroke:none" />
<rect x="170" y="140" width="10" height="10" style="fill:rgb(0,0,0);stroke:none" />
<rect x="180" y="140" width="10" height="10" style="fill:rgb(0,0,0);stroke:none" />
<rect x="190" y="140" width="10" height="10" style="fill:rgb(255,255,255);stroke:none" />
<rect x="200" y="140" width="10" height="10" style="fill:rgb(0,0,0);stroke:none" />
<rect x="210" y="140" width="10" height="10" style="fill:rgb(255,255,255);stroke:none" />
<rect x="220" y="140" width="10" height="10" style="fill:rgb(255,255,255);stroke:none" />
<rect x="230" y="140" width="10" height="10" style="fill:rgb(0,0,0);stroke:none" />
<rect x="240" y="140" width="10" height="10" style="fill:rgb(255,255,255);stroke:none" />
<rect x="250" y="140" width="10" height="10" style="fill:rgb(255,255,255);stroke:none" />
<rect x="0" y="150" width="10" height="10" style="fill:rgb(0,0,0);stroke:none" />
<rect x="10" y="150" width="10" height="10" style="fill:rgb(255,255,255);stroke:none" />
<rect x="20" y="150" width="10" height="10" style="fill:rgb(0,0,0);stroke:none" />
<rect x="30" y="150" width="10" height="10" style="fill:rgb(255,255,255);stroke:none" />
<rect x="40" y="150" width="10" height="10" style="fill:rgb(255,255,255);stroke:none" />
<rect x="50" y="150" width="10" height="10" style="fill:rgb(0,0,0);stroke:none" />
<rect x="60" y="150" width="10" height="10" style="fill:rgb(0,0,0);stroke:none" />
<rect x="70" y="150" width="10" height="10" style="fill:rgb(255,255,255);stroke:none" />
<rect x="80" y="150" width="10" height="10" style="fill:rgb(0,0,0);stroke:none" />
<rect x="90" y="150" width="10" height="10" style="fill:rgb(255,255,255);stroke:none" />
<rect x="100" y="150" width="10" height="10" style="fill:rgb(0,0,0);stroke:none" />
<rect x="110" y="150" width="10" height="10" style="fill:rgb(255,255,255);stroke:none" />
<rect x="120" y="150" width="10" height="10" style="fill:rgb(255,255,255);stroke:none" />
<rect x="130" y="150" width="10" height="10" style="fill:rgb(255,255,255);stroke:none" />
<rect x="140" y="150" width="10" height="10" style="fill:rgb(0,0,0);stroke:none" />
<rect x="150" y="150" width="10" height="10" style="fill:rgb(0,0,0);stroke:none" />
<rect x="160" y="150" width="10" height="10" style="fill:rgb(255,255,255);stroke:none" />
<rect x="170" y="150" width="10" height="10" style="fill:rgb(255,255,255);stroke:none" />
<rect x="180" y="150" width="10" height="10" style="fill:rgb(0,0,0);stroke:none" />
<rect x="190" y="150" width="10" height="10" style="fill:rgb(0,0,0);stroke:none" />
<rect x="200" y="150" width="10" height="10" style="fill:rgb(255,255,255);stroke:none" />
<rect x="210" y="150" width="10" height="10" style="fill:rgb(0,0,0);stroke:none" />
<rect x="220" y="150" width="10" height="10" style="fill:rgb(255,255,255);stroke:none" />
<rect x="230" y="150" width="10" height="10" style="fill:rgb(255,255,255);stroke:none" />
<rect x="240" y="150" width="10" height="10" style="fill:rgb(255,255,255);stroke:none" />
<rect x="250" y="150" width="10" height="10" style="fill:rgb(0,0,0);stroke:none" />
</svg>
